<svg xmlns="http://www.w3.org/2000/svg" xmlns:xlink="http://www.w3.org/1999/xlink" contentStyleType="text/css" height="334px" preserveAspectRatio="none" style="width:519px;height:334px;background:#FFFFFF;" version="1.1" viewBox="0 0 519 334" width="519px" zoomAndPan="magnify"><defs/><g><!--cluster VehicleExample--><g id="cluster_VehicleExample"><path d="M8.5,6.602 L119.6236,6.602 A3.75,3.75 0 0 1 122.1236,9.102 L129.1236,31.6699 L509.5,31.6699 A2.5,2.5 0 0 1 512,34.1699 L512,325.102 A2.5,2.5 0 0 1 509.5,327.602 L8.5,327.602 A2.5,2.5 0 0 1 6,325.102 L6,9.102 A2.5,2.5 0 0 1 8.5,6.602 " fill="none" style="stroke:#000000;stroke-width:1.5;"/><line style="stroke:#000000;stroke-width:1.5;" x1="6" x2="129.1236" y1="31.6699" y2="31.6699"/><text fill="#000000" font-family="sans-serif" font-size="14" font-weight="bold" lengthAdjust="spacing" textLength="110.1236" x="10" y="23.5679">VehicleExample</text></g><!--entity Vehicle--><g id="elem_Vehicle"><rect fill="#F1F1F1" height="49.0679" rx="2.5" ry="2.5" style="stroke:#181818;stroke-width:0.5;" width="86.7878" x="227.5" y="44.602"/><rect fill="#F1F1F1" height="10" style="stroke:#181818;stroke-width:0.5;" width="15" x="294.2878" y="49.602"/><rect fill="#F1F1F1" height="2" style="stroke:#181818;stroke-width:0.5;" width="4" x="292.2878" y="51.602"/><rect fill="#F1F1F1" height="2" style="stroke:#181818;stroke-width:0.5;" width="4" x="292.2878" y="55.602"/><text fill="#000000" font-family="sans-serif" font-size="14" lengthAdjust="spacing" textLength="46.7878" x="242.5" y="79.5679">Vehicle</text></g><!--entity Engine--><g id="elem_Engine"><rect fill="#F1F1F1" height="49.0679" rx="2.5" ry="2.5" style="stroke:#181818;stroke-width:0.5;" width="85.2058" x="48.5" y="262.602"/><rect fill="#F1F1F1" height="10" style="stroke:#181818;stroke-width:0.5;" width="15" x="113.7058" y="267.602"/><rect fill="#F1F1F1" height="2" style="stroke:#181818;stroke-width:0.5;" width="4" x="111.7058" y="269.602"/><rect fill="#F1F1F1" height="2" style="stroke:#181818;stroke-width:0.5;" width="4" x="111.7058" y="273.602"/><text fill="#000000" font-family="sans-serif" font-size="14" lengthAdjust="spacing" textLength="45.2058" x="63.5" y="297.5679">Engine</text></g><!--entity Wheel--><g id="elem_Wheel"><rect fill="#F1F1F1" height="49.0679" rx="2.5" ry="2.5" style="stroke:#181818;stroke-width:0.5;" width="81.0758" x="230.5" y="262.602"/><rect fill="#F1F1F1" height="10" style="stroke:#181818;stroke-width:0.5;" width="15" x="291.5758" y="267.602"/><rect fill="#F1F1F1" height="2" style="stroke:#181818;stroke-width:0.5;" width="4" x="289.5758" y="269.602"/><rect fill="#F1F1F1" height="2" style="stroke:#181818;stroke-width:0.5;" width="4" x="289.5758" y="273.602"/><text fill="#000000" font-family="sans-serif" font-size="14" lengthAdjust="spacing" textLength="41.0758" x="245.5" y="297.5679">Wheel</text></g><!--entity Body--><g id="elem_Body"><rect fill="#F1F1F1" height="49.0679" rx="2.5" ry="2.5" style="stroke:#181818;stroke-width:0.5;" width="73.3199" x="402.5" y="262.602"/><rect fill="#F1F1F1" height="10" style="stroke:#181818;stroke-width:0.5;" width="15" x="455.8199" y="267.602"/><rect fill="#F1F1F1" height="2" style="stroke:#181818;stroke-width:0.5;" width="4" x="453.8199" y="269.602"/><rect fill="#F1F1F1" height="2" style="stroke:#181818;stroke-width:0.5;" width="4" x="453.8199" y="273.602"/><text fill="#000000" font-family="sans-serif" font-size="14" lengthAdjust="spacing" textLength="33.3199" x="417.5" y="297.5679">Body</text></g><!--entity engine--><g id="elem_engine"><rect fill="#F1F1F1" height="49.0679" rx="2.5" ry="2.5" style="stroke:#181818;stroke-width:0.5;" width="137.9156" x="22" y="153.602"/><rect fill="#F1F1F1" height="10" style="stroke:#181818;stroke-width:0.5;" width="15" x="139.9156" y="158.602"/><rect fill="#F1F1F1" height="2" style="stroke:#181818;stroke-width:0.5;" width="4" x="137.9156" y="160.602"/><rect fill="#F1F1F1" height="2" style="stroke:#181818;stroke-width:0.5;" width="4" x="137.9156" y="164.602"/><text fill="#000000" font-family="sans-serif" font-size="14" lengthAdjust="spacing" textLength="49.0698" x="37" y="188.5679">engine:</text><text fill="#000000" font-family="sans-serif" font-size="14" lengthAdjust="spacing" textLength="3.64" x="86.0698" y="188.5679">&#160;</text><text fill="#000000" font-family="sans-serif" font-size="14" lengthAdjust="spacing" textLength="45.2058" x="89.7098" y="188.5679">Engine</text></g><!--entity wheels--><g id="elem_wheels"><rect fill="#F1F1F1" height="49.0679" rx="2.5" ry="2.5" style="stroke:#181818;stroke-width:0.5;" width="151.4535" x="195.5" y="153.602"/><rect fill="#F1F1F1" height="10" style="stroke:#181818;stroke-width:0.5;" width="15" x="326.9535" y="158.602"/><rect fill="#F1F1F1" height="2" style="stroke:#181818;stroke-width:0.5;" width="4" x="324.9535" y="160.602"/><rect fill="#F1F1F1" height="2" style="stroke:#181818;stroke-width:0.5;" width="4" x="324.9535" y="164.602"/><text fill="#000000" font-family="sans-serif" font-size="14" lengthAdjust="spacing" textLength="49.5178" x="210.5" y="188.5679">wheels:</text><text fill="#000000" font-family="sans-serif" font-size="14" lengthAdjust="spacing" textLength="3.64" x="260.0178" y="188.5679">&#160;</text><text fill="#000000" font-family="sans-serif" font-size="14" lengthAdjust="spacing" textLength="58.2958" x="263.6578" y="188.5679">Wheel[4]</text></g><!--entity body--><g id="elem_body"><rect fill="#F1F1F1" height="49.0679" rx="2.5" ry="2.5" style="stroke:#181818;stroke-width:0.5;" width="113.5417" x="382" y="153.602"/><rect fill="#F1F1F1" height="10" style="stroke:#181818;stroke-width:0.5;" width="15" x="475.5417" y="158.602"/><rect fill="#F1F1F1" height="2" style="stroke:#181818;stroke-width:0.5;" width="4" x="473.5417" y="160.602"/><rect fill="#F1F1F1" height="2" style="stroke:#181818;stroke-width:0.5;" width="4" x="473.5417" y="164.602"/><text fill="#000000" font-family="sans-serif" font-size="14" lengthAdjust="spacing" textLength="36.5819" x="397" y="188.5679">body:</text><text fill="#000000" font-family="sans-serif" font-size="14" lengthAdjust="spacing" textLength="3.64" x="433.5819" y="188.5679">&#160;</text><text fill="#000000" font-family="sans-serif" font-size="14" lengthAdjust="spacing" textLength="33.3199" x="437.2218" y="188.5679">Body</text></g><!--reverse link Vehicle to engine--><g id="link_Vehicle_engine"><path codeLine="20" d="M220.7345,99.9832 C190.9045,117.7132 160.64,135.702 130.84,153.422 " fill="none" id="Vehicle-backto-engine" style="stroke:#181818;stroke-width:1.0;"/><polygon fill="#181818" points="231.05,93.852,223.8485,93.4791,220.7345,99.9832,227.936,100.3561,231.05,93.852" style="stroke:#181818;stroke-width:1.0;"/></g><!--link engine to Engine--><g id="link_engine_Engine"><path codeLine="21" d="M91,202.852 C91,220.582 91,226.702 91,244.422 " fill="none" id="engine-to-Engine" style="stroke:#181818;stroke-width:1.0;"/><polygon fill="none" points="91,262.422,97,244.422,85,244.422,91,262.422" style="stroke:#181818;stroke-width:1.0;"/></g><!--reverse link Vehicle to wheels--><g id="link_Vehicle_wheels"><path codeLine="22" d="M271,105.852 C271,123.582 271,135.702 271,153.422 " fill="none" id="Vehicle-backto-wheels" style="stroke:#181818;stroke-width:1.0;"/><polygon fill="#181818" points="271,93.852,267,99.852,271,105.852,275,99.852,271,93.852" style="stroke:#181818;stroke-width:1.0;"/></g><!--link wheels to Wheel--><g id="link_wheels_Wheel"><path codeLine="23" d="M271,202.852 C271,220.582 271,226.702 271,244.422 " fill="none" id="wheels-to-Wheel" style="stroke:#181818;stroke-width:1.0;"/><polygon fill="none" points="271,262.422,277,244.422,265,244.422,271,262.422" style="stroke:#181818;stroke-width:1.0;"/></g><!--reverse link Vehicle to body--><g id="link_Vehicle_body"><path codeLine="24" d="M318.4027,100.2964 C346.2527,118.0264 374,135.702 401.82,153.422 " fill="none" id="Vehicle-backto-body" style="stroke:#181818;stroke-width:1.0;"/><polygon fill="#181818" points="308.28,93.852,311.1932,100.4484,318.4027,100.2964,315.4895,93.6999,308.28,93.852" style="stroke:#181818;stroke-width:1.0;"/></g><!--link body to Body--><g id="link_body_Body"><path codeLine="25" d="M439,202.852 C439,220.582 439,226.702 439,244.422 " fill="none" id="body-to-Body" style="stroke:#181818;stroke-width:1.0;"/><polygon fill="none" points="439,262.422,445,244.422,433,244.422,439,262.422" style="stroke:#181818;stroke-width:1.0;"/></g><!--SRC=[TO-z3e8m58NtFiKDema9YKuC3YQyWWx6ePGR8D2V00QDykwsjnMLuDASd7xfTzetjJAyunAaLbfKdPO8GtT5riytOyVDgIw62hP9mfZXek4bGdJ4gXOjPZSkJOiHF1Y0qD9eXMgOhoFWFOHCoFIBPQgibQTyN8DE5M9B3AKrvA2BEn4kh058hwVm9SI_mj5f-jJhphiBuRvSmtFhJ66Ua7ycsEFz-KqS1wCjWpgEd_kmQ45wcIs3bKYQim2Tp5Ra9CZDODCB]--></g></svg>